<svg width="24" height="36" viewBox="0 0 24 36" fill="none" xmlns="http://www.w3.org/2000/svg">
<path d="M3.88949 10.9703C4.25968 11.2422 9.40188 15.1469 9.5937 15.2875C9.78553 15.4281 9.98072 15.4937 10.2836 15.4937C10.5865 15.4937 10.7817 15.4281 10.9735 15.2875C11.1653 15.1469 16.3075 11.2422 16.6777 10.9703C16.8157 10.8719 17.0479 10.6937 17.0984 10.4922C17.1859 10.1359 17.0916 10 16.7181 10H10.2836H3.84911C3.47556 10 3.38133 10.1406 3.46883 10.4922C3.51931 10.6984 3.75152 10.8719 3.88949 10.9703Z" fill="#CABABA"/>
<path d="M16.9704 11.1814C16.6944 11.3783 14.2176 13.8345 12.5787 15.3111L15.3449 19.647C15.4123 19.7408 15.4425 19.8533 15.4055 19.9095C15.3651 19.9611 15.2776 19.933 15.207 19.8439L11.8888 15.9439C11.3873 16.3939 11.034 16.7033 10.9734 16.7501C10.7143 16.933 10.5325 16.9564 10.2835 16.9564C10.0345 16.9564 9.85275 16.933 9.59362 16.7501C9.52968 16.7033 9.17969 16.3939 8.67825 15.9439L5.36005 19.8439C5.29275 19.9376 5.20188 19.9658 5.1615 19.9095C5.12112 19.858 5.1514 19.7408 5.21871 19.647L7.98163 15.3111C6.34273 13.8345 3.83893 11.3783 3.56297 11.1814C3.26683 10.9705 3.25 11.2189 3.25 11.4111C3.25 11.6033 3.25 21.0205 3.25 21.0205C3.25 21.4564 3.71105 22.0001 4.04085 22.0001H10.2835H16.5262C16.856 22.0001 17.2497 21.4517 17.2497 21.0205C17.2497 21.0205 17.2497 11.5986 17.2497 11.4111C17.2497 11.2142 17.2699 10.9705 16.9704 11.1814Z" fill="#CABABA"/>
</svg>
