<svg width="24" height="24" viewBox="0 0 24 24" fill="none" xmlns="http://www.w3.org/2000/svg">
<path d="M21.821 12.43C21.738 12.311 19.759 9.486 17.028 7.555C15.612 6.552 13.826 6 12 6C10.175 6 8.38899 6.552 6.96999 7.555C4.23899 9.486 2.26199 12.311 2.17899 12.43C1.94099 12.773 1.94099 13.228 2.17899 13.571C2.26199 13.69 4.23899 16.515 6.96999 18.446C8.38899 19.448 10.175 20 12 20C13.826 20 15.612 19.448 17.028 18.445C19.759 16.514 21.738 13.689 21.821 13.57C22.06 13.228 22.06 12.772 21.821 12.43ZM12 16.5C10.066 16.5 8.49999 14.93 8.49999 13C8.49999 11.066 10.066 9.5 12 9.5C13.93 9.5 15.5 11.066 15.5 13C15.5 14.93 13.93 16.5 12 16.5Z" fill="#CABABA"/>
<path d="M14 13C14 14.102 13.102 15 12 15C10.895 15 10 14.102 10 13C10 11.895 10.895 11 12 11C13.102 11 14 11.895 14 13Z" fill="#CABABA"/>
</svg>
