<svg width="60" height="60" viewBox="0 0 60 60" fill="none" xmlns="http://www.w3.org/2000/svg">
<circle cx="30" cy="30" r="29" stroke="url(#paint0_linear_12_125)" stroke-width="2"/>
<path d="M37.8662 30.9644C38.8192 29.9452 39.3846 28.6454 39.3846 27.1683C39.3846 24.4209 37.3331 22.1018 34.5385 21.4519V18.3057H31.3077V21.2599H28.0769V18.3057H24.8462V21.2599H20V24.2141H23.2308V38.985H20V41.9392H24.8462V44.8934H28.0769V41.9392H31.3077V44.8934H34.5385V41.9392C38.1085 41.9392 41 39.2952 41 36.0309C41 33.8891 39.74 31.9984 37.8662 30.9644ZM26.4615 24.2141H32.9231C34.7 24.2141 36.1538 25.5435 36.1538 27.1683C36.1538 28.7931 34.7 30.1225 32.9231 30.1225H26.4615V24.2141ZM34.5385 38.985H26.4615V33.0767H34.5385C36.3154 33.0767 37.7692 34.406 37.7692 36.0309C37.7692 37.6557 36.3154 38.985 34.5385 38.985Z" fill="url(#paint1_linear_12_125)"/>
<defs>
<linearGradient id="paint0_linear_12_125" x1="30" y1="0" x2="-5.625" y2="60" gradientUnits="userSpaceOnUse">
<stop stop-color="#4171EA"/>
<stop offset="1" stop-color="#2F53B0" stop-opacity="0"/>
</linearGradient>
<linearGradient id="paint1_linear_12_125" x1="36.1538" y1="13.1359" x2="9.29424" y2="47.2735" gradientUnits="userSpaceOnUse">
<stop offset="0.231567" stop-color="#DD2DC1"/>
<stop offset="0.748579" stop-color="#2441A7" stop-opacity="0.505208"/>
<stop offset="0.921414" stop-color="#406EE3"/>
</linearGradient>
</defs>
</svg>
