<svg width="294" height="55" viewBox="0 0 294 55" fill="none" xmlns="http://www.w3.org/2000/svg">
<g filter="url(#filter0_b_30_32)">
<rect width="55" height="55" rx="10" fill="#F6F4F4" fill-opacity="0.1"/>
<rect x="0.5" y="0.5" width="54" height="54" rx="9.5" stroke="#F6F4F4" stroke-opacity="0.11"/>
</g>
<path d="M37.92 21C37.15 21.35 36.32 21.58 35.46 21.69C36.34 21.16 37.02 20.32 37.34 19.31C36.51 19.81 35.59 20.16 34.62 20.36C33.83 19.5 32.72 19 31.46 19C29.11 19 27.19 20.92 27.19 23.29C27.19 23.63 27.23 23.96 27.3 24.27C23.74 24.09 20.57 22.38 18.46 19.79C18.09 20.42 17.88 21.16 17.88 21.94C17.88 23.43 18.63 24.75 19.79 25.5C19.08 25.5 18.42 25.3 17.84 25C17.84 25 17.84 25 17.84 25.03C17.84 27.11 19.32 28.85 21.28 29.24C20.92 29.34 20.54 29.39 20.15 29.39C19.88 29.39 19.61 29.36 19.35 29.31C19.89 31 21.46 32.26 23.35 32.29C21.89 33.45 20.04 34.13 18.02 34.13C17.68 34.13 17.34 34.11 17 34.07C18.9 35.29 21.16 36 23.58 36C31.46 36 35.79 29.46 35.79 23.79C35.79 23.6 35.79 23.42 35.78 23.23C36.62 22.63 37.34 21.87 37.92 21Z" fill="url(#paint0_linear_30_32)"/>
<g filter="url(#filter1_b_30_32)">
<rect x="86" width="55" height="55" rx="10" fill="#F6F4F4" fill-opacity="0.1"/>
<rect x="86.5" y="0.5" width="54" height="54" rx="9.5" stroke="#F6F4F4" stroke-opacity="0.11"/>
</g>
<path d="M120 19C120.53 19 121.039 19.2107 121.414 19.5858C121.789 19.9609 122 20.4696 122 21V35C122 35.5304 121.789 36.0391 121.414 36.4142C121.039 36.7893 120.53 37 120 37H106C105.47 37 104.961 36.7893 104.586 36.4142C104.211 36.0391 104 35.5304 104 35V21C104 20.4696 104.211 19.9609 104.586 19.5858C104.961 19.2107 105.47 19 106 19H120ZM119.5 34.5V29.2C119.5 28.3354 119.157 27.5062 118.545 26.8948C117.934 26.2835 117.105 25.94 116.24 25.94C115.39 25.94 114.4 26.46 113.92 27.24V26.13H111.13V34.5H113.92V29.57C113.92 28.8 114.54 28.17 115.31 28.17C115.681 28.17 116.037 28.3175 116.3 28.5801C116.563 28.8426 116.71 29.1987 116.71 29.57V34.5H119.5ZM107.88 24.56C108.326 24.56 108.753 24.383 109.068 24.0679C109.383 23.7529 109.56 23.3256 109.56 22.88C109.56 21.95 108.81 21.19 107.88 21.19C107.432 21.19 107.002 21.3681 106.685 21.685C106.368 22.0019 106.19 22.4318 106.19 22.88C106.19 23.81 106.95 24.56 107.88 24.56ZM109.27 34.5V26.13H106.5V34.5H109.27Z" fill="url(#paint1_linear_30_32)"/>
<g filter="url(#filter2_b_30_32)">
<rect x="164" width="55" height="55" rx="10" fill="#F6F4F4" fill-opacity="0.1"/>
<rect x="164.5" y="0.5" width="54" height="54" rx="9.5" stroke="#F6F4F4" stroke-opacity="0.11"/>
</g>
<path d="M186.8 18H195.2C198.4 18 201 20.6 201 23.8V32.2C201 33.7383 200.389 35.2135 199.301 36.3012C198.214 37.3889 196.738 38 195.2 38H186.8C183.6 38 181 35.4 181 32.2V23.8C181 22.2617 181.611 20.7865 182.699 19.6988C183.786 18.6111 185.262 18 186.8 18ZM186.6 20C185.645 20 184.73 20.3793 184.054 21.0544C183.379 21.7295 183 22.6452 183 23.6V32.4C183 34.39 184.61 36 186.6 36H195.4C196.355 36 197.27 35.6207 197.946 34.9456C198.621 34.2705 199 33.3548 199 32.4V23.6C199 21.61 197.39 20 195.4 20H186.6ZM196.25 21.5C196.582 21.5 196.899 21.6317 197.134 21.8661C197.368 22.1005 197.5 22.4185 197.5 22.75C197.5 23.0815 197.368 23.3995 197.134 23.6339C196.899 23.8683 196.582 24 196.25 24C195.918 24 195.601 23.8683 195.366 23.6339C195.132 23.3995 195 23.0815 195 22.75C195 22.4185 195.132 22.1005 195.366 21.8661C195.601 21.6317 195.918 21.5 196.25 21.5ZM191 23C192.326 23 193.598 23.5268 194.536 24.4645C195.473 25.4021 196 26.6739 196 28C196 29.3261 195.473 30.5979 194.536 31.5355C193.598 32.4732 192.326 33 191 33C189.674 33 188.402 32.4732 187.464 31.5355C186.527 30.5979 186 29.3261 186 28C186 26.6739 186.527 25.4021 187.464 24.4645C188.402 23.5268 189.674 23 191 23ZM191 25C190.204 25 189.441 25.3161 188.879 25.8787C188.316 26.4413 188 27.2044 188 28C188 28.7956 188.316 29.5587 188.879 30.1213C189.441 30.6839 190.204 31 191 31C191.796 31 192.559 30.6839 193.121 30.1213C193.684 29.5587 194 28.7956 194 28C194 27.2044 193.684 26.4413 193.121 25.8787C192.559 25.3161 191.796 25 191 25Z" fill="url(#paint2_linear_30_32)"/>
<g filter="url(#filter3_b_30_32)">
<rect x="239" width="55" height="55" rx="10" fill="#F6F4F4" fill-opacity="0.1"/>
<rect x="239.5" y="0.5" width="54" height="54" rx="9.5" stroke="#F6F4F4" stroke-opacity="0.11"/>
</g>
<path d="M272.325 26.5356C275.275 27.7697 276.726 30.7231 275.764 33.7805C275.108 35.8673 273.239 37.552 271.237 38.3146C268.712 39.2783 265.322 39.2159 262.832 38.1898C257.783 36.1099 256.604 30.3348 257.106 25.5304C257.455 22.1679 258.864 18.8887 261.975 17.204C264.318 15.9283 267.317 15.7481 269.884 16.2819C272.548 16.8365 274.711 18.4034 276.022 20.7744C276.426 21.5024 276.754 22.3066 276.998 23.2009C277.005 23.2356 276.991 23.2702 276.956 23.2772L275.101 23.7625C275.066 23.7694 275.031 23.7486 275.024 23.7209C274.745 22.6671 274.306 21.7311 273.699 20.9131C271.802 18.3479 268.322 17.6615 265.322 18.1954C261.786 18.8263 259.833 21.2944 259.261 24.6845C258.794 27.4369 258.94 30.626 260.217 33.1635C261.291 35.2988 263.237 36.4982 265.581 36.831C266.843 37.0043 268.077 36.9835 269.284 36.7616C271.014 36.4427 272.869 35.3057 273.622 33.6765C274.111 32.6227 274.16 31.2847 273.622 30.2378C273.316 29.6416 272.855 29.1632 272.248 28.8027C272.221 28.7819 272.179 28.7957 272.165 28.8235C272.158 28.8304 272.158 28.8373 272.158 28.8443C272.088 29.3573 271.969 29.8634 271.795 30.3556C271.544 31.0559 271.181 31.659 270.7 32.1513C269.082 33.8082 266.264 33.9538 264.36 32.7614C262.839 31.8046 262.267 29.8495 262.993 28.2411C263.746 26.5772 265.587 25.8562 267.338 25.773C268.329 25.7245 269.242 25.7661 270.086 25.8839C270.121 25.8909 270.149 25.8631 270.156 25.8285C270.156 25.8215 270.156 25.8146 270.156 25.8077C270.079 25.4264 269.989 25.1144 269.877 24.8717C269.291 23.5892 267.973 23.2494 266.655 23.4158C265.811 23.5198 265.148 23.915 264.653 24.5944C264.632 24.6221 264.597 24.6291 264.569 24.6083L262.993 23.5406C262.965 23.5198 262.958 23.4852 262.979 23.4505C263.823 22.2719 264.967 21.5855 266.417 21.3984C267.617 21.2389 268.963 21.4261 270.01 22.057C271.579 23.0137 272.137 24.7331 272.276 26.4732C272.29 26.5079 272.304 26.5287 272.325 26.5356ZM264.799 29.2533C264.485 30.3002 265.211 31.1252 266.194 31.3748C267.575 31.7214 269.11 31.4164 269.765 30.009C270.023 29.4544 270.177 28.8027 270.226 28.0609C270.226 28.0262 270.205 27.9985 270.177 27.9985C269.152 27.7974 268.098 27.7558 267.024 27.8598C266.152 27.9499 265.071 28.3451 264.799 29.2533Z" fill="url(#paint3_linear_30_32)"/>
<defs>
<filter id="filter0_b_30_32" x="-1.6" y="-1.6" width="58.2" height="58.2" filterUnits="userSpaceOnUse" color-interpolation-filters="sRGB">
<feFlood flood-opacity="0" result="BackgroundImageFix"/>
<feGaussianBlur in="BackgroundImageFix" stdDeviation="0.8"/>
<feComposite in2="SourceAlpha" operator="in" result="effect1_backgroundBlur_30_32"/>
<feBlend mode="normal" in="SourceGraphic" in2="effect1_backgroundBlur_30_32" result="shape"/>
</filter>
<filter id="filter1_b_30_32" x="84.4" y="-1.6" width="58.2" height="58.2" filterUnits="userSpaceOnUse" color-interpolation-filters="sRGB">
<feFlood flood-opacity="0" result="BackgroundImageFix"/>
<feGaussianBlur in="BackgroundImageFix" stdDeviation="0.8"/>
<feComposite in2="SourceAlpha" operator="in" result="effect1_backgroundBlur_30_32"/>
<feBlend mode="normal" in="SourceGraphic" in2="effect1_backgroundBlur_30_32" result="shape"/>
</filter>
<filter id="filter2_b_30_32" x="162.4" y="-1.6" width="58.2" height="58.2" filterUnits="userSpaceOnUse" color-interpolation-filters="sRGB">
<feFlood flood-opacity="0" result="BackgroundImageFix"/>
<feGaussianBlur in="BackgroundImageFix" stdDeviation="0.8"/>
<feComposite in2="SourceAlpha" operator="in" result="effect1_backgroundBlur_30_32"/>
<feBlend mode="normal" in="SourceGraphic" in2="effect1_backgroundBlur_30_32" result="shape"/>
</filter>
<filter id="filter3_b_30_32" x="237.4" y="-1.6" width="58.2" height="58.2" filterUnits="userSpaceOnUse" color-interpolation-filters="sRGB">
<feFlood flood-opacity="0" result="BackgroundImageFix"/>
<feGaussianBlur in="BackgroundImageFix" stdDeviation="0.8"/>
<feComposite in2="SourceAlpha" operator="in" result="effect1_backgroundBlur_30_32"/>
<feBlend mode="normal" in="SourceGraphic" in2="effect1_backgroundBlur_30_32" result="shape"/>
</filter>
<linearGradient id="paint0_linear_30_32" x1="33.0923" y1="15.6944" x2="18.8722" y2="43.8531" gradientUnits="userSpaceOnUse">
<stop offset="0.231567" stop-color="#DD2DC1"/>
<stop offset="0.748579" stop-color="#2441A7" stop-opacity="0.505208"/>
<stop offset="0.921414" stop-color="#406EE3"/>
</linearGradient>
<linearGradient id="paint1_linear_30_32" x1="117.846" y1="15.5" x2="101.071" y2="42.4937" gradientUnits="userSpaceOnUse">
<stop offset="0.231567" stop-color="#DD2DC1"/>
<stop offset="0.748579" stop-color="#2441A7" stop-opacity="0.505208"/>
<stop offset="0.921414" stop-color="#406EE3"/>
</linearGradient>
<linearGradient id="paint2_linear_30_32" x1="196.385" y1="14.1111" x2="177.746" y2="44.1041" gradientUnits="userSpaceOnUse">
<stop offset="0.231567" stop-color="#DD2DC1"/>
<stop offset="0.748579" stop-color="#2441A7" stop-opacity="0.505208"/>
<stop offset="0.921414" stop-color="#406EE3"/>
</linearGradient>
<linearGradient id="paint3_linear_30_32" x1="272.385" y1="11.5278" x2="249.767" y2="43.1762" gradientUnits="userSpaceOnUse">
<stop offset="0.231567" stop-color="#DD2DC1"/>
<stop offset="0.748579" stop-color="#2441A7" stop-opacity="0.505208"/>
<stop offset="0.921414" stop-color="#406EE3"/>
</linearGradient>
</defs>
</svg>
