<svg width="21" height="21" viewBox="0 0 21 21" fill="none" xmlns="http://www.w3.org/2000/svg">
<path d="M20.6978 8.74893C20.6626 8.53185 20.4723 8.37656 20.2524 8.37656H19.8133C19.8013 8.37656 19.7917 8.36689 19.7917 8.35495C19.7917 8.34301 19.782 8.33333 19.7701 8.33333H12.5C11.3494 8.33333 10.4167 9.26607 10.4167 10.4167C10.4167 11.5673 11.3494 12.5 12.5 12.5H12.8544C14.5374 12.5 15.6443 14.2216 14.3362 15.2805C13.2653 16.1472 11.9025 16.6667 10.4167 16.6667C6.9651 16.6667 4.16667 13.8682 4.16667 10.4167C4.16667 6.9651 6.9651 4.16667 10.4167 4.16667C11.2993 4.16667 12.1378 4.35112 12.8978 4.68256C13.9199 5.1283 15.1788 5.13368 15.9673 4.34521C16.81 3.50246 16.7926 2.10698 15.7724 1.49084C14.2083 0.546194 12.3777 0 10.4167 0C4.66406 0 0 4.66406 0 10.4167C0 16.1693 4.66406 20.8333 10.4167 20.8333C16.1693 20.8333 20.8333 16.1693 20.8333 10.4167C20.8333 9.8488 20.7858 9.29196 20.6978 8.74893Z" fill="#FBC02D"/>
<path d="M2.11444 4.13257C1.5234 4.91287 1.78508 5.99681 2.57443 6.5757C3.61342 7.33767 5.106 6.88467 6.02071 5.97725C7.14884 4.85811 8.70104 4.16667 10.4163 4.16667C11.2989 4.16667 12.1374 4.35112 12.8974 4.68256C13.9195 5.1283 15.1785 5.13368 15.9669 4.34521C16.8097 3.50246 16.7922 2.10698 15.772 1.49084C14.2079 0.546194 12.3773 0 10.4163 0C7.02507 0 4.01548 1.62278 2.11444 4.13257Z" fill="#E53935"/>
<path d="M10.4165 20.833C12.217 20.833 13.9073 20.372 15.3826 19.5652C16.5359 18.9344 16.5088 17.3744 15.5053 16.5253C14.7286 15.868 13.6104 15.8794 12.6618 16.2475C11.9656 16.5177 11.209 16.6664 10.4165 16.6664C8.66159 16.6664 7.0782 15.9416 5.94489 14.7757C5.02488 13.8293 3.46978 13.3524 2.42423 14.1579C1.6816 14.7301 1.43731 15.7636 1.98742 16.5227C3.87881 19.1327 6.9466 20.833 10.4165 20.833Z" fill="#4CAF50"/>
<path d="M20.6306 8.37624C20.6257 8.35114 20.6038 8.33301 20.5782 8.33301H19.7915H12.4998C11.3492 8.33301 10.4165 9.26575 10.4165 10.4163C10.4165 11.5669 11.3492 12.4997 12.4998 12.4997H12.8543C14.5373 12.4997 15.6419 14.2197 14.3329 15.2776C14.2809 15.3196 14.2282 15.3608 14.1748 15.4012C14.1758 15.4006 14.177 15.4007 14.1778 15.4014L15.4579 16.4846C16.487 17.3555 18.3106 17.3748 19.063 16.2562C19.9397 14.9529 20.8332 12.9894 20.8332 10.4163C20.8332 9.7179 20.7613 9.03613 20.6306 8.37624Z" fill="#1565C0"/>
</svg>
