<svg width="20" height="14" viewBox="0 0 20 14" fill="none" xmlns="http://www.w3.org/2000/svg">
<path d="M12 7C12 8.102 11.102 9 10 9C8.895 9 8 8.102 8 7C8 5.895 8.895 5 10 5C11.102 5 12 5.895 12 7Z" fill="#CABABA"/>
<path d="M19.821 6.43C19.738 6.311 17.759 3.486 15.028 1.555C13.612 0.552 11.826 0 9.99999 0C8.17499 0 6.38899 0.552 4.96999 1.555C2.23899 3.486 0.261988 6.311 0.178988 6.43C-0.0590117 6.773 -0.0590117 7.228 0.178988 7.571C0.261988 7.69 2.23899 10.515 4.96999 12.446C6.38899 13.448 8.17499 14 9.99999 14C11.826 14 13.612 13.448 15.028 12.445C17.759 10.514 19.738 7.689 19.821 7.57C20.06 7.228 20.06 6.772 19.821 6.43ZM9.99999 10.5C8.06599 10.5 6.49999 8.93 6.49999 7C6.49999 5.066 8.06599 3.5 9.99999 3.5C11.93 3.5 13.5 5.066 13.5 7C13.5 8.93 11.93 10.5 9.99999 10.5Z" fill="#CABABA"/>
</svg>
