<svg width="27" height="27" viewBox="0 0 27 27" fill="none" xmlns="http://www.w3.org/2000/svg">
<path d="M8.39233e-05 13.3334C8.39233e-05 15.0844 0.344959 16.8182 1.01502 18.4359C1.68508 20.0535 2.66721 21.5234 3.90532 22.7615C5.14344 23.9996 6.61329 24.9817 8.23097 25.6518C9.84864 26.3219 11.5825 26.6667 13.3334 26.6667C15.0844 26.6667 16.8182 26.3219 18.4359 25.6518C20.0535 24.9817 21.5234 23.9996 22.7615 22.7615C25.262 20.261 26.6667 16.8696 26.6667 13.3334C26.6667 9.7972 25.262 6.40581 22.7615 3.90532C21.5234 2.66721 20.0535 1.68508 18.4359 1.01502C16.8182 0.344959 15.0844 8.39233e-05 13.3334 8.39233e-05C9.7972 8.39233e-05 6.40581 1.40484 3.90532 3.90532C1.40484 6.40581 8.39233e-05 9.7972 8.39233e-05 13.3334ZM2.66675 13.3334C2.66675 10.5044 3.79056 7.79133 5.79094 5.79094C7.79133 3.79056 10.5044 2.66675 13.3334 2.66675C16.1624 2.66675 18.8755 3.79056 20.8759 5.79094C22.8763 7.79133 24.0001 10.5044 24.0001 13.3334C24.0001 16.1624 22.8763 18.8755 20.8759 20.8759C18.8755 22.8763 16.1624 24.0001 13.3334 24.0001C10.5044 24.0001 7.79133 22.8763 5.79094 20.8759C3.79056 18.8755 2.66675 16.1624 2.66675 13.3334ZM10.6667 20.0001L17.3334 13.3334L10.6667 6.66675L10.6667 20.0001Z" fill="white"/>
</svg>
