<svg width="28" height="27" viewBox="0 0 28 27" fill="none" xmlns="http://www.w3.org/2000/svg">
<path d="M27.3332 13.3336C27.3332 11.5826 26.9883 9.84881 26.3182 8.23113C25.6482 6.61346 24.666 5.1436 23.4279 3.90549C22.1898 2.66737 20.72 1.68525 19.1023 1.01518C17.4846 0.345121 15.7508 0.000244141 13.9998 0.000244141C12.2489 0.000244141 10.5151 0.345121 8.89739 1.01518C7.27972 1.68525 5.80986 2.66737 4.57175 3.90549C2.07126 6.40597 0.666504 9.79736 0.666504 13.3336C0.666504 16.8698 2.07126 20.2612 4.57175 22.7617C5.80986 23.9998 7.27972 24.9819 8.89739 25.652C10.5151 26.322 12.2489 26.6669 13.9998 26.6669C17.5361 26.6669 20.9274 25.2622 23.4279 22.7617C25.9284 20.2612 27.3332 16.8698 27.3332 13.3336ZM24.6665 13.3336C24.6665 16.1626 23.5427 18.8757 21.5423 20.876C19.5419 22.8764 16.8288 24.0002 13.9998 24.0002C11.1709 24.0002 8.45775 22.8764 6.45736 20.876C4.45698 18.8757 3.33317 16.1626 3.33317 13.3336C3.33317 10.5046 4.45698 7.79149 6.45736 5.7911C8.45775 3.79072 11.1709 2.66691 13.9998 2.66691C16.8288 2.66691 19.5419 3.79072 21.5423 5.7911C23.5427 7.79149 24.6665 10.5046 24.6665 13.3336ZM16.6665 6.66691L9.99984 13.3336L16.6665 20.0002V6.66691Z" fill="white"/>
</svg>
