<svg width="18" height="17" viewBox="0 0 18 17" fill="none" xmlns="http://www.w3.org/2000/svg">
<path d="M5 4.45312H9M13 4.45312C11.6332 4.45312 9 4.45312 9 4.45312M9 4.45312V8.70312M9 12.9531V8.70312M9 8.70312C18 8.45312 12.5 6.45312 10.5 6.45312M9 8.70312C1.59604 8.13112 3.94833 7.15621 7.5 6.45312M4 1.45312C4.5 0.953131 13.5 0.95312 14 1.45312C14.5 1.95313 17 6.95312 17 7.45312C17 7.95312 9.5 15.4531 9 15.4531C8.5 15.4531 1 8.45312 1 7.45312C1 6.45312 3.5 1.95312 4 1.45312Z" stroke="#30384E" stroke-width="2"/>
</svg>
