<svg width="18" height="15" viewBox="0 0 18 15" fill="none" xmlns="http://www.w3.org/2000/svg">
<path d="M1.5001 1.99987C2.00019 1.99987 5.5 1.49988 6.00009 1.99987C6.00009 1.99987 6.60951 3.21882 7 3.99987C7 4.5 7 12.4999 7 12.4999L10.0001 12.4999C10.0001 12.4999 10.0001 4.5 10.0001 3.99987C10.0001 3.49973 11.8101 2.18972 12.0001 1.99987C12.19 1.81001 16.0002 1.49987 16.5001 1.99987C17 2.49987 16.5001 12.9999 16.5001 12.9999C16.5586 13.7192 16.224 13.9291 15.0001 13.9999H10.0001H8.0001H3.0001C1.99204 13.8959 1.54596 13.701 1.5001 12.4999C1.5001 12.4999 1 1.99986 1.5001 1.99987Z" fill="#30384E"/>
<path d="M6.00009 1.99987C5.5 1.49988 2.00019 1.99987 1.5001 1.99987C1 1.99986 1.5001 12.4999 1.5001 12.4999C1.54596 13.701 1.99204 13.8959 3.0001 13.9999H8.0001H10.0001H15.0001C16.224 13.9291 16.5586 13.7192 16.5001 12.9999C16.5001 12.9999 17 2.49987 16.5001 1.99987C16.0002 1.49987 12.19 1.81001 12.0001 1.99987C11.8101 2.18972 10.0001 3.49973 10.0001 3.99987C10.0001 4.5 10.0001 12.4999 10.0001 12.4999L7 12.4999C7 12.4999 7 4.5 7 3.99987M6.00009 1.99987C6.50019 2.49985 7 3.99987 7 3.99987M6.00009 1.99987C6.00009 1.99987 6.60951 3.21882 7 3.99987" stroke="#30384E" stroke-width="2"/>
<path d="M11 8.81968H11.8C11.8 9.29901 12.348 9.70734 13 9.70734C13.652 9.70734 14.2 9.29901 14.2 8.81968C14.2 8.33147 13.784 8.15394 12.904 7.91871C12.056 7.68348 11 7.39055 11 6.15671C11 5.36226 11.588 4.68764 12.4 4.46129V3.49374H13.6V4.46129C14.412 4.68764 15 5.36226 15 6.15671H14.2C14.2 5.67738 13.652 5.26906 13 5.26906C12.348 5.26906 11.8 5.67738 11.8 6.15671C11.8 6.64492 12.216 6.82245 13.096 7.05768C13.944 7.29291 15 7.58584 15 8.81968C15 9.61413 14.412 10.2888 13.6 10.5151V11.4826H12.4V10.5151C11.588 10.2888 11 9.61413 11 8.81968Z" fill="#0A1223"/>
</svg>
