<svg width="1185" height="525" viewBox="0 0 1185 525" fill="none" xmlns="http://www.w3.org/2000/svg">
<rect x="39" y="26" width="144" height="43" rx="10" fill="white" fill-opacity="0.1"/>
<rect x="39.5" y="26.5" width="143" height="42" rx="9.5" stroke="white" stroke-opacity="0.1"/>
<path d="M70.4382 56V42.9091H78.6456V44.6094H72.4134V48.598H78.2173V50.2919H72.4134V54.2997H78.7223V56H70.4382ZM84.8059 56.1918C84.0133 56.1918 83.3059 55.9893 82.6838 55.5845C82.0659 55.1754 81.5801 54.5937 81.2264 53.8395C80.877 53.081 80.7022 52.1712 80.7022 51.1101C80.7022 50.049 80.8791 49.1413 81.2328 48.3871C81.5907 47.6328 82.0808 47.0554 82.7029 46.6548C83.3251 46.2543 84.0304 46.054 84.8187 46.054C85.4281 46.054 85.9181 46.1562 86.2889 46.3608C86.6639 46.5611 86.9537 46.7955 87.1582 47.0639C87.367 47.3324 87.5289 47.5689 87.644 47.7734H87.7591V42.9091H89.6703V56H87.8038V54.4723H87.644C87.5289 54.6811 87.3627 54.9197 87.1454 55.1882C86.9324 55.4567 86.6383 55.6911 86.2633 55.8913C85.8883 56.0916 85.4025 56.1918 84.8059 56.1918ZM85.2278 54.5618C85.7775 54.5618 86.242 54.4169 86.6213 54.1271C87.0048 53.8331 87.2946 53.4261 87.4906 52.9062C87.6909 52.3864 87.791 51.7812 87.791 51.0909C87.791 50.4091 87.693 49.8125 87.497 49.3011C87.301 48.7898 87.0133 48.3913 86.6341 48.1058C86.2548 47.8203 85.786 47.6776 85.2278 47.6776C84.6525 47.6776 84.1731 47.8267 83.7896 48.125C83.4061 48.4233 83.1163 48.8303 82.9203 49.3459C82.7285 49.8615 82.6326 50.4432 82.6326 51.0909C82.6326 51.7472 82.7306 52.3374 82.9267 52.8615C83.1227 53.3857 83.4125 53.8011 83.796 54.108C84.1838 54.4105 84.661 54.5618 85.2278 54.5618ZM92.3981 56V46.1818H94.3093V56H92.3981ZM93.3633 44.6669C93.0309 44.6669 92.7454 44.5561 92.5067 44.3345C92.2724 44.1087 92.1552 43.8402 92.1552 43.5291C92.1552 43.2138 92.2724 42.9453 92.5067 42.7237C92.7454 42.4979 93.0309 42.3849 93.3633 42.3849C93.6957 42.3849 93.979 42.4979 94.2134 42.7237C94.4521 42.9453 94.5714 43.2138 94.5714 43.5291C94.5714 43.8402 94.4521 44.1087 94.2134 44.3345C93.979 44.5561 93.6957 44.6669 93.3633 44.6669ZM101.464 46.1818V47.7159H96.1007V46.1818H101.464ZM97.5389 43.8295H99.4501V53.1172C99.4501 53.4879 99.5055 53.767 99.6163 53.9545C99.7271 54.1378 99.8699 54.2635 100.045 54.3317C100.224 54.3956 100.417 54.4276 100.626 54.4276C100.78 54.4276 100.914 54.4169 101.029 54.3956C101.144 54.3743 101.233 54.3572 101.297 54.3445L101.643 55.9233C101.532 55.9659 101.374 56.0085 101.17 56.0511C100.965 56.098 100.709 56.1236 100.403 56.1278C99.8997 56.1364 99.4309 56.0469 98.9963 55.8594C98.5616 55.6719 98.21 55.3821 97.9416 54.9901C97.6731 54.598 97.5389 54.1058 97.5389 53.5135V43.8295ZM108.341 56V46.1818H110.176V47.7798H110.297C110.502 47.2386 110.836 46.8168 111.301 46.5142C111.765 46.2074 112.322 46.054 112.969 46.054C113.626 46.054 114.175 46.2074 114.618 46.5142C115.066 46.821 115.396 47.2429 115.609 47.7798H115.711C115.946 47.2557 116.319 46.8381 116.83 46.527C117.341 46.2116 117.951 46.054 118.658 46.054C119.549 46.054 120.275 46.3331 120.838 46.8913C121.405 47.4496 121.688 48.2912 121.688 49.4162V56H119.777V49.5952C119.777 48.9304 119.596 48.4489 119.233 48.1506C118.871 47.8523 118.439 47.7031 117.936 47.7031C117.314 47.7031 116.83 47.8949 116.485 48.2784C116.14 48.6577 115.967 49.1456 115.967 49.7422V56H114.062V49.4737C114.062 48.9411 113.896 48.5128 113.564 48.1889C113.231 47.8651 112.799 47.7031 112.266 47.7031C111.904 47.7031 111.569 47.799 111.263 47.9908C110.96 48.1783 110.715 48.4403 110.528 48.777C110.344 49.1136 110.253 49.5036 110.253 49.9467V56H108.341ZM128.385 56.1982C127.465 56.1982 126.662 55.9872 125.975 55.5653C125.289 55.1435 124.757 54.5533 124.377 53.7947C123.998 53.0362 123.809 52.1499 123.809 51.1357C123.809 50.1172 123.998 49.2266 124.377 48.4638C124.757 47.701 125.289 47.1087 125.975 46.6868C126.662 46.2649 127.465 46.054 128.385 46.054C129.306 46.054 130.109 46.2649 130.795 46.6868C131.481 47.1087 132.014 47.701 132.393 48.4638C132.772 49.2266 132.962 50.1172 132.962 51.1357C132.962 52.1499 132.772 53.0362 132.393 53.7947C132.014 54.5533 131.481 55.1435 130.795 55.5653C130.109 55.9872 129.306 56.1982 128.385 56.1982ZM128.392 54.5938C128.988 54.5938 129.483 54.4361 129.875 54.1207C130.267 53.8054 130.556 53.3857 130.744 52.8615C130.936 52.3374 131.032 51.7599 131.032 51.1293C131.032 50.5028 130.936 49.9276 130.744 49.4034C130.556 48.875 130.267 48.451 129.875 48.1314C129.483 47.8118 128.988 47.652 128.392 47.652C127.791 47.652 127.292 47.8118 126.896 48.1314C126.504 48.451 126.212 48.875 126.02 49.4034C125.833 49.9276 125.739 50.5028 125.739 51.1293C125.739 51.7599 125.833 52.3374 126.02 52.8615C126.212 53.3857 126.504 53.8054 126.896 54.1207C127.292 54.4361 127.791 54.5938 128.392 54.5938ZM138.771 56.1918C137.978 56.1918 137.271 55.9893 136.649 55.5845C136.031 55.1754 135.545 54.5937 135.191 53.8395C134.842 53.081 134.667 52.1712 134.667 51.1101C134.667 50.049 134.844 49.1413 135.198 48.3871C135.556 47.6328 136.046 47.0554 136.668 46.6548C137.29 46.2543 137.995 46.054 138.784 46.054C139.393 46.054 139.883 46.1562 140.254 46.3608C140.629 46.5611 140.919 46.7955 141.123 47.0639C141.332 47.3324 141.494 47.5689 141.609 47.7734H141.724V42.9091H143.635V56H141.769V54.4723H141.609C141.494 54.6811 141.328 54.9197 141.11 55.1882C140.897 55.4567 140.603 55.6911 140.228 55.8913C139.853 56.0916 139.367 56.1918 138.771 56.1918ZM139.193 54.5618C139.742 54.5618 140.207 54.4169 140.586 54.1271C140.97 53.8331 141.259 53.4261 141.455 52.9062C141.656 52.3864 141.756 51.7812 141.756 51.0909C141.756 50.4091 141.658 49.8125 141.462 49.3011C141.266 48.7898 140.978 48.3913 140.599 48.1058C140.22 47.8203 139.751 47.6776 139.193 47.6776C138.617 47.6776 138.138 47.8267 137.754 48.125C137.371 48.4233 137.081 48.8303 136.885 49.3459C136.693 49.8615 136.597 50.4432 136.597 51.0909C136.597 51.7472 136.695 52.3374 136.892 52.8615C137.088 53.3857 137.377 53.8011 137.761 54.108C138.149 54.4105 138.626 54.5618 139.193 54.5618ZM150.594 56.1982C149.627 56.1982 148.794 55.9915 148.095 55.5781C147.401 55.1605 146.864 54.5746 146.484 53.8203C146.109 53.0618 145.922 52.1733 145.922 51.1548C145.922 50.1491 146.109 49.2628 146.484 48.4957C146.864 47.7287 147.392 47.13 148.07 46.6996C148.751 46.2692 149.548 46.054 150.46 46.054C151.014 46.054 151.551 46.1456 152.071 46.3288C152.591 46.5121 153.058 46.7997 153.471 47.1918C153.884 47.5838 154.21 48.093 154.449 48.7195C154.688 49.3416 154.807 50.098 154.807 50.9886V51.6662H147.002V50.2344H152.934C152.934 49.7315 152.832 49.2862 152.627 48.8984C152.423 48.5064 152.135 48.1974 151.764 47.9716C151.398 47.7457 150.967 47.6328 150.473 47.6328C149.936 47.6328 149.467 47.7649 149.067 48.0291C148.67 48.2891 148.364 48.63 148.146 49.0518C147.933 49.4695 147.827 49.9233 147.827 50.4134V51.532C147.827 52.1882 147.942 52.7464 148.172 53.2067C148.406 53.6669 148.732 54.0185 149.15 54.2614C149.567 54.5 150.055 54.6193 150.614 54.6193C150.976 54.6193 151.306 54.5682 151.604 54.4659C151.903 54.3594 152.161 54.2017 152.378 53.9929C152.595 53.7841 152.761 53.5263 152.876 53.2195L154.685 53.5455C154.54 54.0781 154.281 54.5447 153.906 54.9453C153.535 55.3416 153.068 55.6506 152.506 55.8722C151.947 56.0895 151.31 56.1982 150.594 56.1982Z" fill="#D3CACA"/>
<g filter="url(#filter0_b_65_2212)">
<path d="M0 88.7244H211H222H1135C1162.61 88.7244 1185 111.11 1185 138.724V475C1185 502.614 1162.61 525 1135 525H50C22.3857 525 0 502.614 0 475V88.7244Z" fill="#4B4D71" fill-opacity="0.1"/>
<path d="M0 88.7244H211H222V15C222 6.71574 215.284 0 207 0H15C6.71573 0 0 6.71573 0 15V88.7244Z" fill="#4B4D71" fill-opacity="0.1"/>
<path d="M222 89.2244H222.5H1135C1162.34 89.2244 1184.5 111.386 1184.5 138.724V475C1184.5 502.338 1162.34 524.5 1135 524.5H50C22.6619 524.5 0.5 502.338 0.5 475V89.2244H211H222ZM211 88.2244H0.5V15C0.5 6.99187 6.99188 0.5 15 0.5H207C215.008 0.5 221.5 6.99188 221.5 15V88.2244H211Z" stroke="#4B4D71" stroke-opacity="0.1"/>
</g>
<defs>
<filter id="filter0_b_65_2212" x="-5.6" y="-5.6" width="1196.2" height="536.2" filterUnits="userSpaceOnUse" color-interpolation-filters="sRGB">
<feFlood flood-opacity="0" result="BackgroundImageFix"/>
<feGaussianBlur in="BackgroundImageFix" stdDeviation="2.8"/>
<feComposite in2="SourceAlpha" operator="in" result="effect1_backgroundBlur_65_2212"/>
<feBlend mode="normal" in="SourceGraphic" in2="effect1_backgroundBlur_65_2212" result="shape"/>
</filter>
</defs>
</svg>
