<svg width="15" height="13" viewBox="0 0 15 13" fill="none" xmlns="http://www.w3.org/2000/svg">
<path d="M1.18708 1.24265C1.60803 1.24265 4.55391 0.794439 4.97485 1.24265C4.97485 1.24265 5.48782 2.33537 5.8165 3.03554C5.8165 3.48388 5.8165 10.6553 5.8165 10.6553L8.34176 10.6553C8.34176 10.6553 8.34176 3.48388 8.34176 3.03554C8.34176 2.5872 9.86533 1.41284 10.0252 1.24265C10.1851 1.07246 13.3922 0.794425 13.813 1.24265C14.2338 1.69087 13.813 11.1036 13.813 11.1036C13.8622 11.7484 13.5806 11.9365 12.5504 12H8.34176H6.65831H2.44967C1.60117 11.9068 1.22569 11.7321 1.18708 10.6553C1.18708 10.6553 0.766144 1.24265 1.18708 1.24265Z" fill="#CABABA"/>
<path d="M4.97485 1.24265C4.55391 0.794439 1.60803 1.24265 1.18708 1.24265C0.766144 1.24265 1.18708 10.6553 1.18708 10.6553C1.22569 11.7321 1.60117 11.9068 2.44967 12H6.65831H8.34176H12.5504C13.5806 11.9365 13.8622 11.7484 13.813 11.1036C13.813 11.1036 14.2338 1.69087 13.813 1.24265C13.3922 0.794425 10.1851 1.07246 10.0252 1.24265C9.86533 1.41284 8.34176 2.5872 8.34176 3.03554C8.34176 3.48388 8.34176 10.6553 8.34176 10.6553L5.8165 10.6553C5.8165 10.6553 5.8165 3.48388 5.8165 3.03554M4.97485 1.24265C5.3958 1.69086 5.8165 3.03554 5.8165 3.03554M4.97485 1.24265C4.97485 1.24265 5.48782 2.33537 5.8165 3.03554" stroke="#CABABA" stroke-width="2"/>
<path d="M9.18359 7.35645H9.85698C9.85698 7.78614 10.3182 8.15218 10.867 8.15218C11.4159 8.15218 11.8771 7.78614 11.8771 7.35645C11.8771 6.91879 11.527 6.75964 10.7862 6.54877C10.0725 6.3379 9.18359 6.07531 9.18359 4.96924C9.18359 4.25706 9.67853 3.6523 10.362 3.44938V2.58203H11.3721V3.44938C12.0556 3.6523 12.5505 4.25706 12.5505 4.96924H11.8771C11.8771 4.53954 11.4159 4.1735 10.867 4.1735C10.3182 4.1735 9.85698 4.53954 9.85698 4.96924C9.85698 5.40689 10.2071 5.56604 10.9479 5.77691C11.6616 5.98778 12.5505 6.25037 12.5505 7.35645C12.5505 8.06863 12.0556 8.67339 11.3721 8.8763V9.74365H10.362V8.8763C9.67853 8.67339 9.18359 8.06863 9.18359 7.35645Z" fill="#0A1223"/>
</svg>
