<svg width="14" height="12" viewBox="0 0 14 12" fill="none" xmlns="http://www.w3.org/2000/svg">
<path d="M0.639493 0.970312C1.00968 1.24219 6.15188 5.14687 6.3437 5.2875C6.53553 5.42812 6.73072 5.49375 7.03359 5.49375C7.33647 5.49375 7.53166 5.42812 7.72348 5.2875C7.91531 5.14687 13.0575 1.24219 13.4277 0.970312C13.5657 0.871875 13.7979 0.69375 13.8484 0.492187C13.9359 0.135937 13.8416 0 13.4681 0H7.03359H0.59911C0.225559 0 0.13133 0.140625 0.218829 0.492187C0.269308 0.698437 0.501515 0.871875 0.639493 0.970312Z" fill="#CABABA"/>
<path d="M13.7204 1.1814C13.4444 1.37827 10.9676 3.83452 9.32866 5.31109L12.0949 9.64702C12.1623 9.74077 12.1925 9.85327 12.1555 9.90952C12.1151 9.96108 12.0276 9.93296 11.957 9.8439L8.63877 5.9439C8.13733 6.3939 7.78398 6.70327 7.7234 6.75015C7.46427 6.93296 7.28254 6.9564 7.03351 6.9564C6.78448 6.9564 6.60275 6.93296 6.34362 6.75015C6.27968 6.70327 5.92969 6.3939 5.42825 5.9439L2.11005 9.8439C2.04275 9.93765 1.95188 9.96577 1.9115 9.90952C1.87112 9.85796 1.9014 9.74077 1.96871 9.64702L4.73163 5.31109C3.09273 3.83452 0.58893 1.37827 0.312974 1.1814C0.0168265 0.970461 0 1.2189 0 1.41109C0 1.60327 0 11.0205 0 11.0205C0 11.4564 0.461048 12.0001 0.790849 12.0001H7.03351H13.2762C13.606 12.0001 13.9997 11.4517 13.9997 11.0205C13.9997 11.0205 13.9997 1.59859 13.9997 1.41109C13.9997 1.21421 14.0199 0.970461 13.7204 1.1814Z" fill="#CABABA"/>
</svg>
