<svg width="20" height="20" viewBox="0 0 20 20" fill="none" xmlns="http://www.w3.org/2000/svg">
<path d="M6.22437 4.11516C6.32183 4.38432 13.5619 4.42055 13.6482 4.11516C13.7346 3.80976 14.7618 1.76518 14.3906 1.76525H12.1635C10.3398 0.731822 9.38031 0.758099 7.70915 1.76525H5.11079C4.7396 1.76525 6.12691 3.846 6.22437 4.11516Z" fill="#30384E"/>
<path d="M5.85318 5.79367C8.44268 6.3659 9.94614 6.22056 13.6482 5.79367C17.3503 5.36677 21.3089 17.2977 17.3602 18.2146C13.4114 19.1315 6.44537 19.3844 2.51244 18.2146C-1.4205 17.0448 3.26368 5.22144 5.85318 5.79367Z" fill="#30384E"/>
<path d="M14.3906 1.76525C14.7618 1.76518 13.7346 3.80976 13.6482 4.11516C13.5619 4.42055 6.32183 4.38432 6.22437 4.11516C6.12691 3.846 4.7396 1.76525 5.11079 1.76525M14.3906 1.76525C14.0194 1.76531 12.1635 1.76525 12.1635 1.76525M14.3906 1.76525H12.1635M12.1635 1.76525C10.3398 0.731822 9.38031 0.758099 7.70915 1.76525M7.70915 1.76525C7.70915 1.76525 5.48198 1.76525 5.11079 1.76525M7.70915 1.76525H5.11079M5.85318 5.79367C8.44268 6.3659 9.94614 6.22056 13.6482 5.79367C17.3503 5.36677 21.3089 17.2977 17.3602 18.2146C13.4114 19.1315 6.44537 19.3844 2.51244 18.2146C-1.4205 17.0448 3.26368 5.22144 5.85318 5.79367Z" stroke="#30384E" stroke-width="2"/>
<path d="M7.70898 12.9738H8.74833C8.74833 13.537 9.46028 14.0168 10.3073 14.0168C11.1544 14.0168 11.8664 13.537 11.8664 12.9738C11.8664 12.4002 11.3259 12.1916 10.1826 11.9152C9.08092 11.6389 7.70898 11.2947 7.70898 9.84497C7.70898 8.91152 8.4729 8.11887 9.52784 7.85292V6.71609H11.0869V7.85292C12.1418 8.11887 12.9057 8.91152 12.9057 9.84497H11.8664C11.8664 9.28177 11.1544 8.80201 10.3073 8.80201C9.46028 8.80201 8.74833 9.28177 8.74833 9.84497C8.74833 10.4186 9.28879 10.6272 10.4321 10.9036C11.5338 11.18 12.9057 11.5241 12.9057 12.9738C12.9057 13.9073 12.1418 14.6999 11.0869 14.9659V16.1027H9.52784V14.9659C8.4729 14.6999 7.70898 13.9073 7.70898 12.9738Z" fill="#0A1223"/>
</svg>
