<svg width="25" height="25" viewBox="0 0 25 25" fill="none" xmlns="http://www.w3.org/2000/svg">
<path d="M22.7142 10.4601H21.8752V10.4168H12.5002V14.5835H18.3871C17.5283 17.009 15.2205 18.7502 12.5002 18.7502C9.0486 18.7502 6.25016 15.9517 6.25016 12.5002C6.25016 9.0486 9.0486 6.25016 12.5002 6.25016C14.0934 6.25016 15.5429 6.8512 16.6465 7.83298L19.5929 4.88662C17.7325 3.15277 15.2439 2.0835 12.5002 2.0835C6.74756 2.0835 2.0835 6.74756 2.0835 12.5002C2.0835 18.2528 6.74756 22.9168 12.5002 22.9168C18.2528 22.9168 22.9168 18.2528 22.9168 12.5002C22.9168 11.8017 22.845 11.12 22.7142 10.4601Z" fill="#FBC02D"/>
<path d="M3.28418 7.65172L6.70658 10.1616C7.63262 7.86891 9.87533 6.25016 12.4998 6.25016C14.093 6.25016 15.5425 6.8512 16.6462 7.83297L19.5925 4.88662C17.7321 3.15277 15.2436 2.0835 12.4998 2.0835C8.49876 2.0835 5.02897 4.34235 3.28418 7.65172Z" fill="#E53935"/>
<path d="M12.5 22.9165C15.1906 22.9165 17.6354 21.8868 19.4839 20.2124L16.2599 17.4842C15.2141 18.2764 13.9141 18.7499 12.5 18.7499C9.79062 18.7499 7.4901 17.0223 6.62344 14.6113L3.22656 17.2285C4.95052 20.602 8.45156 22.9165 12.5 22.9165Z" fill="#4CAF50"/>
<path d="M22.7141 10.4597L22.7057 10.4165H21.875H12.5V14.5832H18.387C17.9745 15.7483 17.225 16.753 16.2583 17.4847L16.2599 17.4837L19.4839 20.2118C19.2557 20.4191 22.9167 17.7082 22.9167 12.4998C22.9167 11.8014 22.8448 11.1196 22.7141 10.4597Z" fill="#1565C0"/>
</svg>
