<svg width="319" height="254" viewBox="0 0 319 254" fill="none" xmlns="http://www.w3.org/2000/svg">
<g filter="url(#filter0_b_65_2054)">
<path d="M0 42.9257H56.8008H113.602H304C312.284 42.9257 319 49.6415 319 57.9257V239C319 247.284 312.284 254 304 254H15C6.71572 254 0 247.284 0 239V42.9257Z" fill="#4B4D71" fill-opacity="0.1"/>
<path d="M0 42.9257H56.8008H113.602V15C113.602 6.71571 106.886 0 98.6017 0H15C6.71574 0 0 6.71573 0 15V42.9257Z" fill="#4B4D71" fill-opacity="0.1"/>
<path d="M113.602 43.4257H114.102H304C312.008 43.4257 318.5 49.9176 318.5 57.9257V239C318.5 247.008 312.008 253.5 304 253.5H15C6.99187 253.5 0.5 247.008 0.5 239V43.4257H56.8008H113.602ZM56.8008 42.4257H0.5V15C0.5 6.99187 6.99189 0.5 15 0.5H98.6017C106.61 0.5 113.102 6.99186 113.102 15V42.4257H56.8008Z" stroke="#4B4D71" stroke-opacity="0.1"/>
</g>
<defs>
<filter id="filter0_b_65_2054" x="-5.6" y="-5.6" width="330.2" height="265.2" filterUnits="userSpaceOnUse" color-interpolation-filters="sRGB">
<feFlood flood-opacity="0" result="BackgroundImageFix"/>
<feGaussianBlur in="BackgroundImageFix" stdDeviation="2.8"/>
<feComposite in2="SourceAlpha" operator="in" result="effect1_backgroundBlur_65_2054"/>
<feBlend mode="normal" in="SourceGraphic" in2="effect1_backgroundBlur_65_2054" result="shape"/>
</filter>
</defs>
</svg>
