<svg width="64" height="59" viewBox="0 0 64 59" fill="none" xmlns="http://www.w3.org/2000/svg">
<g clip-path="url(#clip0_155_2)">
<path fill-rule="evenodd" clip-rule="evenodd" d="M18.3396 54.0832L26.6605 56.3661V53.3808L27.3398 52.6785H32.0945V56.1904V58.6487H27.0001L20.717 55.8392L18.3396 54.0832Z" fill="#CDBDB2"/>
<path fill-rule="evenodd" clip-rule="evenodd" d="M45.5093 54.0832L37.3583 56.3661V53.3808L36.6791 52.6785H31.9244V56.1904V58.6487H37.0187L43.3016 55.8392L45.5093 54.0832Z" fill="#CDBDB2"/>
<path fill-rule="evenodd" clip-rule="evenodd" d="M27.3396 47.5864L26.6604 53.3809L27.5093 52.6785H36.3395L37.3584 53.3809L36.6791 47.5864L35.3206 46.7083L28.5282 46.884L27.3396 47.5864Z" fill="#393939"/>
<path fill-rule="evenodd" clip-rule="evenodd" d="M22.7546 8.42847L26.8301 18.2618L28.6982 46.884H35.3207L37.3584 18.2618L41.0943 8.42847H22.7546Z" fill="#F89C35"/>
<path fill-rule="evenodd" clip-rule="evenodd" d="M4.92464 30.0269L0.169922 44.2499L12.0567 43.5476H19.6981V37.4019L19.3585 24.759L17.6603 26.1638L4.92464 30.0269Z" fill="#F89D35"/>
<path fill-rule="evenodd" clip-rule="evenodd" d="M13.9246 31.6072L27.8491 31.9584L26.3209 39.3334L19.6981 37.5774L13.9246 31.6072Z" fill="#D87C30"/>
<path fill-rule="evenodd" clip-rule="evenodd" d="M13.9246 31.7827L19.6981 37.4018V43.0208L13.9246 31.7827Z" fill="#EA8D3A"/>
<path fill-rule="evenodd" clip-rule="evenodd" d="M19.698 37.5774L26.4905 39.3333L28.6981 46.8841L27.1697 47.7619L19.698 43.1964V37.5774Z" fill="#F89D35"/>
<path fill-rule="evenodd" clip-rule="evenodd" d="M19.6981 43.1963L18.3396 54.0832L27.3398 47.5863L19.6981 43.1963Z" fill="#EB8F35"/>
<path fill-rule="evenodd" clip-rule="evenodd" d="M27.849 31.9583L28.6982 46.884L26.1509 39.2455L27.849 31.9583Z" fill="#EA8E3A"/>
<path fill-rule="evenodd" clip-rule="evenodd" d="M11.8867 43.372L19.698 43.1963L18.3395 54.0832L11.8867 43.372Z" fill="#D87C30"/>
<path fill-rule="evenodd" clip-rule="evenodd" d="M3.90577 58.8245L18.3396 54.0832L11.8868 43.3721L0.169922 44.2499L3.90577 58.8245Z" fill="#EB8F35"/>
<path fill-rule="evenodd" clip-rule="evenodd" d="M26.8302 18.262L19.5285 24.5834L13.9246 31.6072L27.8491 32.1341L26.8302 18.262Z" fill="#E8821E"/>
<path fill-rule="evenodd" clip-rule="evenodd" d="M18.3396 54.0833L27.3398 47.5864L26.6605 53.2055V56.3662L20.5473 55.1369L18.3396 54.0833Z" fill="#DFCEC3"/>
<path fill-rule="evenodd" clip-rule="evenodd" d="M45.5093 54.0833L36.6791 47.5864L37.3583 53.2055V56.3662L43.4715 55.1369L45.5093 54.0833Z" fill="#DFCEC3"/>
<path fill-rule="evenodd" clip-rule="evenodd" d="M24.1131 35.1189L25.9812 39.1577L19.3584 37.4018L24.1131 35.1189Z" fill="#393939"/>
<path fill-rule="evenodd" clip-rule="evenodd" d="M3.73584 0.175781L26.8302 18.2619L22.9247 8.4286L3.73584 0.175781Z" fill="#E88F35"/>
<path fill-rule="evenodd" clip-rule="evenodd" d="M3.7358 0.175537L0.679199 9.83328L2.37731 20.369L1.18863 21.0714L2.88675 22.6517L1.52826 23.8809L3.39618 25.6368L2.2075 26.6904L4.92448 30.2023L17.6603 26.1636C23.8867 21.0128 26.9434 18.3789 26.8301 18.2618C26.7169 18.1448 19.0188 12.116 3.7358 0.175537Z" fill="#8E5A30"/>
<path fill-rule="evenodd" clip-rule="evenodd" d="M58.9242 30.0269L63.679 44.2499L51.7922 43.5476H44.1508V37.4019L44.4904 24.759L46.1885 26.1638L58.9242 30.0269Z" fill="#F89D35"/>
<path fill-rule="evenodd" clip-rule="evenodd" d="M49.9243 31.6072L35.9998 31.9584L37.5279 39.3334L44.1507 37.5774L49.9243 31.6072Z" fill="#D87C30"/>
<path fill-rule="evenodd" clip-rule="evenodd" d="M49.9243 31.7827L44.1507 37.4018V43.0208L49.9243 31.7827Z" fill="#EA8D3A"/>
<path fill-rule="evenodd" clip-rule="evenodd" d="M44.1509 37.5774L37.3584 39.3333L35.1507 46.8841L36.6792 47.7619L44.1509 43.1964V37.5774Z" fill="#F89D35"/>
<path fill-rule="evenodd" clip-rule="evenodd" d="M44.1508 43.1963L45.5093 54.0832L36.6791 47.7618L44.1508 43.1963Z" fill="#EB8F35"/>
<path fill-rule="evenodd" clip-rule="evenodd" d="M35.9999 31.9583L35.1507 46.884L37.698 39.2455L35.9999 31.9583Z" fill="#EA8E3A"/>
<path fill-rule="evenodd" clip-rule="evenodd" d="M51.9622 43.372L44.1508 43.1963L45.5093 54.0832L51.9622 43.372Z" fill="#D87C30"/>
<path fill-rule="evenodd" clip-rule="evenodd" d="M59.9431 58.8245L45.5093 54.0832L51.9621 43.3721L63.679 44.2499L59.9431 58.8245Z" fill="#EB8F35"/>
<path fill-rule="evenodd" clip-rule="evenodd" d="M37.0187 18.262L44.3204 24.5834L49.9243 31.6072L35.9998 32.1341L37.0187 18.262Z" fill="#E8821E"/>
<path fill-rule="evenodd" clip-rule="evenodd" d="M39.7358 35.1189L37.8677 39.1577L44.4905 37.4018L39.7358 35.1189Z" fill="#393939"/>
<path fill-rule="evenodd" clip-rule="evenodd" d="M60.113 0.175781L37.0187 18.2619L40.9242 8.4286L60.113 0.175781Z" fill="#E88F35"/>
<path fill-rule="evenodd" clip-rule="evenodd" d="M60.1131 0.175537L63.1697 9.83328L61.4716 20.369L62.6602 21.0714L60.9621 22.6517L62.3206 23.8809L60.4527 25.6368L61.6414 26.6904L58.9244 30.2023L46.1885 26.1636C39.9621 21.0128 36.9055 18.3789 37.0187 18.2618C37.1319 18.1448 44.8301 12.116 60.1131 0.175537Z" fill="#8E5A30"/>
</g>
<defs>
<clipPath id="clip0_155_2">
<rect width="64" height="59" fill="white"/>
</clipPath>
</defs>
</svg>
