<svg width="18" height="20" viewBox="0 0 18 20" fill="none" xmlns="http://www.w3.org/2000/svg">
<path d="M9 6.41571C9.98134 6.41571 10.9225 6.79687 11.6164 7.47535C12.3103 8.15383 12.7002 9.07405 12.7002 10.0336C12.7002 10.9931 12.3103 11.9133 11.6164 12.5918C10.9225 13.2703 9.98134 13.6514 9 13.6514C8.01866 13.6514 7.07751 13.2703 6.3836 12.5918C5.68968 11.9133 5.29985 10.9931 5.29985 10.0336C5.29985 9.07405 5.68968 8.15383 6.3836 7.47535C7.07751 6.79687 8.01866 6.41571 9 6.41571ZM9 8.22464C8.50933 8.22464 8.03876 8.41522 7.6918 8.75446C7.34484 9.0937 7.14992 9.55381 7.14992 10.0336C7.14992 10.5133 7.34484 10.9734 7.6918 11.3127C8.03876 11.6519 8.50933 11.8425 9 11.8425C9.49067 11.8425 9.96124 11.6519 10.3082 11.3127C10.6552 10.9734 10.8501 10.5133 10.8501 10.0336C10.8501 9.55381 10.6552 9.0937 10.3082 8.75446C9.96124 8.41522 9.49067 8.22464 9 8.22464ZM7.14992 19.0782C6.91866 19.0782 6.72441 18.9154 6.68741 18.6983L6.34514 16.3015C5.76237 16.0754 5.26285 15.7679 4.78183 15.4061L2.47848 16.3196C2.27497 16.3919 2.02521 16.3196 1.91421 16.1206L0.0641343 12.9912C-0.0561206 12.7922 -0.000618205 12.548 0.175139 12.4123L2.12697 10.9109L2.06222 10.0336L2.12697 9.1291L0.175139 7.65482C-0.000618205 7.51915 -0.0561206 7.27495 0.0641343 7.07597L1.91421 3.94652C2.02521 3.74754 2.27497 3.66614 2.47848 3.74754L4.78183 4.652C5.26285 4.29926 5.76237 3.99174 6.34514 3.76563L6.68741 1.3688C6.72441 1.15173 6.91866 0.988922 7.14992 0.988922H10.8501C11.0813 0.988922 11.2756 1.15173 11.3126 1.3688L11.6549 3.76563C12.2376 3.99174 12.7372 4.29926 13.2182 4.652L15.5215 3.74754C15.725 3.66614 15.9748 3.74754 16.0858 3.94652L17.9359 7.07597C18.0561 7.27495 18.0006 7.51915 17.8249 7.65482L15.873 9.1291L15.9378 10.0336L15.873 10.938L17.8249 12.4123C18.0006 12.548 18.0561 12.7922 17.9359 12.9912L16.0858 16.1206C15.9748 16.3196 15.725 16.401 15.5215 16.3196L13.2182 15.4151C12.7372 15.7679 12.2376 16.0754 11.6549 16.3015L11.3126 18.6983C11.2756 18.9154 11.0813 19.0782 10.8501 19.0782H7.14992ZM8.30622 2.79785L7.96396 5.1585C6.85391 5.38462 5.87337 5.96348 5.16109 6.76845L2.93175 5.82781L2.23797 7.00361L4.1898 8.40553C3.81979 9.46375 3.81979 10.6124 4.1898 11.6616L2.22872 13.0726L2.9225 14.2484L5.17034 13.3077C5.88262 14.1037 6.85391 14.6825 7.95471 14.8996L8.29697 17.2693H9.70303L10.0453 14.9086C11.1461 14.6825 12.1174 14.1037 12.8297 13.3077L15.0775 14.2484L15.7713 13.0726L13.8102 11.6706C14.1802 10.6124 14.1802 9.46375 13.8102 8.40553L15.762 7.00361L15.0682 5.82781L12.8389 6.76845C12.1266 5.96348 11.1461 5.38462 10.036 5.16755L9.69378 2.79785H8.30622Z" fill="#30384E"/>
</svg>
