<svg width="159" height="31" viewBox="0 0 159 31" fill="none" xmlns="http://www.w3.org/2000/svg">
<path d="M19.7372 13.7656H15.3821C15.3026 13.2022 15.1402 12.7017 14.8949 12.2642C14.6496 11.8201 14.3348 11.4422 13.9503 11.1307C13.5658 10.8191 13.1217 10.5805 12.6179 10.4148C12.1207 10.2491 11.5805 10.1662 10.9972 10.1662C9.94318 10.1662 9.0251 10.428 8.2429 10.9517C7.4607 11.4687 6.85417 12.2244 6.4233 13.2188C5.99242 14.2064 5.77699 15.4062 5.77699 16.8182C5.77699 18.2699 5.99242 19.4896 6.4233 20.4773C6.8608 21.465 7.47064 22.2107 8.25284 22.7145C9.03504 23.2183 9.93987 23.4702 10.9673 23.4702C11.544 23.4702 12.0777 23.3939 12.5682 23.2415C13.0653 23.089 13.5062 22.867 13.8906 22.5753C14.2751 22.277 14.5933 21.9157 14.8452 21.4915C15.1037 21.0672 15.2827 20.5833 15.3821 20.0398L19.7372 20.0597C19.6245 20.9943 19.3428 21.8958 18.892 22.7642C18.4479 23.6259 17.848 24.3982 17.0923 25.081C16.3433 25.7571 15.4484 26.294 14.4077 26.6918C13.3736 27.0829 12.2036 27.2784 10.8977 27.2784C9.08144 27.2784 7.45739 26.8674 6.02557 26.0455C4.60038 25.2235 3.47348 24.0336 2.64489 22.4759C1.82292 20.9181 1.41193 19.0322 1.41193 16.8182C1.41193 14.5975 1.82955 12.7083 2.66477 11.1506C3.5 9.5928 4.63352 8.40625 6.06534 7.59091C7.49716 6.76894 9.10795 6.35795 10.8977 6.35795C12.0777 6.35795 13.1714 6.52367 14.179 6.85511C15.1932 7.18655 16.0914 7.67045 16.8736 8.30682C17.6558 8.93655 18.2921 9.70881 18.7827 10.6236C19.2798 11.5384 19.598 12.5857 19.7372 13.7656ZM22.8246 27V6.63636H30.8587C32.3965 6.63636 33.709 6.91146 34.7962 7.46165C35.8899 8.00521 36.7218 8.77746 37.2919 9.77841C37.8686 10.7727 38.157 11.9427 38.157 13.2884C38.157 14.6406 37.8653 15.804 37.282 16.7784C36.6986 17.7462 35.8535 18.4886 34.7464 19.0057C33.6461 19.5227 32.3137 19.7812 30.7493 19.7812H25.37V16.321H30.0533C30.8752 16.321 31.558 16.2083 32.1016 15.983C32.6451 15.7576 33.0495 15.4195 33.3146 14.9688C33.5864 14.518 33.7223 13.9579 33.7223 13.2884C33.7223 12.6122 33.5864 12.0421 33.3146 11.5781C33.0495 11.1141 32.6418 10.7628 32.0916 10.5241C31.5481 10.2789 30.862 10.1562 30.0334 10.1562H27.13V27H22.8246ZM33.8217 17.733L38.8828 27H34.13L29.1783 17.733H33.8217ZM39.1587 6.63636H43.9812L48.6246 15.4062H48.8235L53.467 6.63636H58.2894L50.8619 19.8011V27H46.5863V19.8011L39.1587 6.63636ZM60.641 27V6.63636H68.6751C70.2196 6.63636 71.5354 6.93134 72.6225 7.52131C73.7096 8.10464 74.5382 8.91667 75.1083 9.95739C75.685 10.9915 75.9734 12.1847 75.9734 13.5369C75.9734 14.8892 75.6817 16.0824 75.0984 17.1165C74.515 18.1506 73.6699 18.956 72.5629 19.5327C71.4625 20.1094 70.1301 20.3977 68.5657 20.3977H63.445V16.9474H67.8697C68.6983 16.9474 69.381 16.8049 69.918 16.5199C70.4615 16.2282 70.8659 15.8272 71.131 15.3168C71.4028 14.7997 71.5387 14.2064 71.5387 13.5369C71.5387 12.8608 71.4028 12.2708 71.131 11.767C70.8659 11.2566 70.4615 10.8622 69.918 10.5838C69.3744 10.2988 68.685 10.1562 67.8498 10.1562H64.9464V27H60.641ZM77.9943 10.1861V6.63636H94.7188V10.1861H88.4844V27H84.2287V10.1861H77.9943ZM123.395 27V6.63636H131.429C132.967 6.63636 134.279 6.91146 135.366 7.46165C136.46 8.00521 137.292 8.77746 137.862 9.77841C138.439 10.7727 138.727 11.9427 138.727 13.2884C138.727 14.6406 138.436 15.804 137.852 16.7784C137.269 17.7462 136.424 18.4886 135.317 19.0057C134.216 19.5227 132.884 19.7812 131.32 19.7812H125.94V16.321H130.624C131.446 16.321 132.128 16.2083 132.672 15.983C133.215 15.7576 133.62 15.4195 133.885 14.9688C134.157 14.518 134.293 13.9579 134.293 13.2884C134.293 12.6122 134.157 12.0421 133.885 11.5781C133.62 11.1141 133.212 10.7628 132.662 10.5241C132.118 10.2789 131.432 10.1562 130.604 10.1562H127.7V27H123.395ZM134.392 17.733L139.453 27H134.7L129.749 17.733H134.392ZM152.817 12.4929C152.737 11.6908 152.396 11.0677 151.793 10.6236C151.189 10.1794 150.371 9.95739 149.337 9.95739C148.634 9.95739 148.041 10.0568 147.557 10.2557C147.073 10.4479 146.702 10.7164 146.443 11.0611C146.191 11.4058 146.065 11.7969 146.065 12.2344C146.052 12.599 146.128 12.9171 146.294 13.1889C146.466 13.4607 146.702 13.696 147 13.8949C147.298 14.0871 147.643 14.2562 148.034 14.402C148.425 14.5412 148.843 14.6605 149.287 14.7599L151.116 15.1974C152.005 15.3963 152.82 15.6615 153.562 15.9929C154.305 16.3243 154.948 16.732 155.491 17.2159C156.035 17.6998 156.456 18.2699 156.754 18.9261C157.059 19.5824 157.215 20.3348 157.222 21.1832C157.215 22.4295 156.897 23.5099 156.267 24.4247C155.644 25.3329 154.742 26.0388 153.562 26.5426C152.389 27.0398 150.974 27.2884 149.317 27.2884C147.673 27.2884 146.241 27.0365 145.021 26.5327C143.808 26.0289 142.86 25.2831 142.178 24.2955C141.501 23.3011 141.147 22.0715 141.114 20.6065H145.28C145.326 21.2893 145.522 21.8594 145.866 22.3168C146.218 22.7675 146.685 23.1089 147.268 23.3409C147.858 23.5663 148.525 23.679 149.267 23.679C149.996 23.679 150.629 23.5729 151.166 23.3608C151.71 23.1487 152.131 22.8537 152.429 22.4759C152.727 22.098 152.876 21.6638 152.876 21.1733C152.876 20.7159 152.741 20.3314 152.469 20.0199C152.204 19.7083 151.813 19.4432 151.295 19.2244C150.785 19.0057 150.159 18.8068 149.416 18.6278L147.199 18.071C145.482 17.6534 144.126 17.0005 143.132 16.1122C142.138 15.224 141.644 14.0275 141.651 12.5227C141.644 11.2898 141.972 10.2126 142.635 9.29119C143.304 8.36979 144.223 7.65057 145.389 7.13352C146.556 6.61648 147.882 6.35795 149.366 6.35795C150.878 6.35795 152.197 6.61648 153.324 7.13352C154.457 7.65057 155.339 8.36979 155.969 9.29119C156.598 10.2126 156.923 11.2798 156.943 12.4929H152.817Z" fill="white"/>
<path d="M108 3.92649C101.068 3.92649 98 17.7366 98 17.7366L108 22.6688L118 17.7366C118 17.7366 114.932 3.92649 108 3.92649ZM98 19.3806C98 19.3806 101.833 30.889 108 30.889C114.167 30.889 118 19.3806 118 19.3806L108 24.3128L98 19.3806Z" fill="url(#paint0_linear_26_49)"/>
<defs>
<linearGradient id="paint0_linear_26_49" x1="113.385" y1="-1.31623" x2="85.7929" y2="31.6177" gradientUnits="userSpaceOnUse">
<stop offset="0.231567" stop-color="#DD2DC1"/>
<stop offset="0.748579" stop-color="#2441A7" stop-opacity="0.505208"/>
<stop offset="0.921414" stop-color="#406EE3"/>
</linearGradient>
</defs>
</svg>
