<svg width="18" height="19" viewBox="0 0 18 19" fill="none" xmlns="http://www.w3.org/2000/svg">
<path d="M16 0.291504H2C0.89 0.291504 0 1.18592 0 2.30142V6.32127H2V2.30142H16V16.3709H2V12.351H0V16.3709C0 16.9039 0.210714 17.4152 0.585786 17.7921C0.960859 18.169 1.46957 18.3808 2 18.3808H16C16.5304 18.3808 17.0391 18.169 17.4142 17.7921C17.7893 17.4152 18 16.9039 18 16.3709V2.30142C18 1.18592 17.1 0.291504 16 0.291504ZM7.08 12.9339L8.5 14.3609L13.5 9.33615L8.5 4.31134L7.08 5.72834L9.67 8.33119H0V10.3411H9.67L7.08 12.9339Z" fill="#30384E"/>
</svg>
